<svg version="1.1" id="Слой_1" xmlns="http://www.w3.org/2000/svg" x="0" y="0" viewBox="0 0 200 200" xml:space="preserve"><style>.st0,.st1,.st2{fill-rule:evenodd;clip-rule:evenodd;fill:#1a1a18}.st1,.st2{fill:#fff}.st2{fill:#cd4fbd}</style><circle transform="rotate(-45 99.99931 100.33248)" class="st0" cx="100" cy="100.33" r="96.65"/><circle transform="rotate(-45 99.99934 100.01797)" class="st1" cx="100" cy="100.02" r="93.74"/><circle transform="rotate(-2.849 100.05117 100.06518)" class="st2" cx="100" cy="100.02" r="65.9"/><path d="M73.63 70.09c3.36 2.48 23.94 24.77 26.4 26.01 1.34-.79 17.27-17.06 19.83-19.61 1.5-1.5 5.85-5.32 6.55-6.92-2.33-2.18-15.28-14.94-16.38-16.67-1.12.44-16.66 16.25-17.18 17.21 2.22 1.64 5.03 5.67 7.19 6.81 1.47-.89 2.48-2.27 3.72-3.5 1.21-1.21 2.79-2.25 3.44-3.86l-3.56-3.52 3.49-3.4c2.19 1.69 5.07 5 7.13 7.03-.57 1.03-12.93 13.42-14.22 14.32-1.44-.86-5.69-5.49-7.24-7.04-1.53-1.52-6.28-5.79-7.01-7.33 3.45-3.3 6.37-6.55 10.1-9.95l10.13-10.57c-2.02-1.52-3.82-4.43-5.98-5.6L73.63 70.09zm29.86 54.86c-.02-6.54.02-13.07-.02-19.61-.02-2.82.72-2.7 3.95-5.93l4.81-4.81c1.29-1.29 18.06-18.76 19.84-19.35l10.49 10.43c-.62 1.67-3.48 3.94-4.82 5.28-4.28 4.29-32.83 33.26-34.25 33.99zM57.48 86.27c.59-1.04 10.01-10.47 11.02-11.05l26.91 27c1.25 1.21 1.17 1.12 1.14 3.43-.06 6.42-.01 12.85-.01 19.27-1.54-.68-17.09-16.76-19.68-19.35L62.3 91c-1.46-1.45-3.33-3.58-4.82-4.73zm36.15 74.15c.56-4.63.66-10.26-.26-14.92-1.21-6.13-3.67-8.49-7.43-12.7-8.29-9.28-5.24-6.9-10.31-17.88-.18 5.33 1 9.88 2.11 14.62-4.21-1.58-14.18-8.72-17.7-12.08-3.67-3.51-10.9-11.77-12.87-16.64.15 5.67 3.56 15.97 5.89 20.22 11.76 21.41 33.34 17.16 38.98 33.89.26.77.56 1.8.75 2.65.1.46.15.88.24 1.27.06.24.14.56.22.79.3.79.11.39.38.78zm28.69-30.9c.77-4.46 2.64-9.67 2.05-14.74-.49 2.93-3.28 8.64-4.74 11.1-3.4 5.74-8.41 9.18-10.74 13.46-3.32 6.09-3.27 13.93-2.51 20.8l.63-1.31c.09-.31.17-.92.25-1.29 4.08-19.44 26.62-13.94 39.4-35.96 2.75-4.73 5.7-13.99 6.19-20.36-.06.06-.15.08-.17.2l-5.81 8.58c-3.98 5.2-9.67 10.38-15.18 13.97-2.14 1.39-7.1 4.7-9.37 5.55zm5.87-6.55c1.14-.43 1.93-1.19 3-1.94 1.51-1.07 1.65-1.05 1.72-3.55.08-3.06.13-6.95-.44-9.92-.7 2.49-1.11 5.38-1.83 7.97-.69 2.49-1.89 5.14-2.45 7.44zm-56.32.02c-1.47-5.35-2.45-6.25-3.78-12.94-.03-.17-.19-.91-.23-1.05l-.3-.76c-.03-.07-.07-.17-.12-.25-.31 3.12-.41 6.55-.3 9.8.08 2.38.28 2.25 1.72 3.26 1.07.76 1.85 1.52 3.01 1.94zm62.32-4.35c1.17-.71 1.58-1.32 2.64-2.21 1.08-.91 1.82-1.1 1.93-2.98.17-3.04-.06-6.7-.34-9.72-.92 2-1.23 5.42-1.87 7.75-.68 2.43-1.89 5.06-2.36 7.16zm-68.32.01c-.62-2.3-1.66-4.55-2.35-7.15-.52-1.97-1.25-6.29-1.86-7.77-.37 2.91-.54 6.79-.38 9.72.11 1.96 3.01 4.32 4.59 5.2zm-5.36-5.04l-2.48-8.78c-.07 1.1-.28 4.81-.01 5.68.31 1.01 1.96 2.39 2.49 3.1zm79.03 0c2.92-3.81 2.66-.69 2.5-8.75l-2.5 8.75z" fill-rule="evenodd" clip-rule="evenodd" fill="#fffbfc"/><path class="st2" d="M17.19 104.4l-.21-2.97c-.2-2.72.15-4.77 1.04-6.15.89-1.39 2.37-2.15 4.44-2.29 1.7-.12 3.04.4 4.02 1.54.99 1.15 1.56 2.84 1.72 5.1l.69 9.54-18.38 1.27L9.42 95.3l3.72-.26.69 9.59 3.36-.23zm7.34-.51l-.2-2.84c-.12-1.74-.83-2.56-2.12-2.47-1.12.08-1.63.99-1.5 2.72l.2 2.84 3.62-.25zm4.62-30.01l-1.81 6.05 2.65 1.7-1.63 5.45-15.73-11.56 1.75-5.85L34 68.25l-1.67 5.59-3.18.04zm-4.17.04l-6.92.07 5.79 3.72 1.13-3.79zm10.66-25.55c1.77-1.41 3.55-1.49 5.32-.24 1.46 1.03 2.25 2.42 2.37 4.18.13 1.76-.55 3.64-2.03 5.65-2.53 3.43-5.57 4.52-9.12 3.28l2.82-4.5c1.22.5 2.24.18 3.07-.93.46-.63.65-1.21.57-1.76-.08-.55-.41-1.02-.98-1.42-.55-.39-1.15-.5-1.79-.34-.64.16-1.22.6-1.74 1.3l-.9 1.22-2.67-1.88.71-.97c.42-.58.61-1.14.54-1.68-.07-.55-.38-1.02-.93-1.4-.81-.57-1.57-.36-2.3.63-.75 1.02-.72 1.94.09 2.77l-3.46 3.7c-2.1-2.48-1.95-5.36.47-8.64 1.34-1.82 2.74-2.99 4.22-3.51 1.48-.52 2.83-.35 4.04.5 1.46 1.03 2.03 2.38 1.7 4.04zM57.67 37.2l2.59 1.79 4.71-3.58-16.76-10.08-4.92 3.74 5.83 18.39 4.59-3.49-1.13-2.9 5.09-3.87zm-3.4-2.36l-3.18 2.42-2.47-6.32 5.65 3.9zm48.15-5.01l-.15-2.7-14.99 1.03-1.29-17.97 5.67-.39.98 13.55 6.24-.43-.98-13.55 5.67-.39 1 13.83 3.4-.14-5.55 7.16zm16.14-18.7l10.25 2.88c1.71.48 2.9 1.26 3.57 2.34.67 1.08.83 2.24.47 3.46-.3 1.02-.88 1.81-1.75 2.36-.58.37-1.33.57-2.25.63 1.19.66 1.97 1.43 2.36 2.33.38.9.42 1.9.09 3-.26.9-.71 1.64-1.35 2.24-.64.6-1.39 1-2.25 1.21-.54.13-1.29.12-2.25-.02-1.28-.19-2.12-.34-2.52-.45l-9.45-2.65 5.08-17.33zm3.52 8.35l2.39.67c.85.24 1.49.26 1.91.07.42-.2.71-.56.87-1.11.15-.5.09-.95-.16-1.32-.25-.38-.79-.69-1.62-.92l-2.42-.68-.97 3.29zm-1.99 6.79l2.79.78c.94.26 1.66.29 2.14.07.48-.22.8-.6.97-1.15.15-.51.08-.98-.21-1.39-.29-.42-.92-.76-1.88-1.03l-2.78-.78-1.03 3.5zm26.71-4.42l12.33 8.74-2.31 3.12-7.71-5.46-1.72 2.32 7.15 5.06-2.2 2.98-7.15-5.06-2.13 2.87 7.94 5.63-2.45 3.3L136 36.44l10.8-14.59zm21.33 17.03l-3.72 2.57 3.35 4.65-11.33 7.82 3.28 4.54 11.33-7.82 3.35 4.65 3.72-2.57-9.98-13.84zm7.14 27.06c2.9-.78 5.38-.6 7.44.54 2.06 1.14 3.49 3.13 4.29 5.95.82 2.89.65 5.33-.49 7.32-1.15 1.99-3.15 3.37-6.01 4.14-2.07.56-3.87.68-5.39.35-1.52-.33-2.83-1.04-3.94-2.13-1.11-1.09-1.93-2.6-2.47-4.53-.55-1.96-.69-3.66-.42-5.12.28-1.45.99-2.77 2.15-3.94 1.15-1.16 2.77-2.02 4.84-2.58zm1.5 5.36c-1.79.48-2.99 1.16-3.58 2.02-.6.87-.74 1.86-.42 2.98.33 1.15.96 1.95 1.91 2.37.95.43 2.41.37 4.4-.16 1.67-.45 2.8-1.11 3.38-1.98.59-.87.72-1.87.4-3-.31-1.08-.94-1.85-1.91-2.29-.98-.45-2.37-.43-4.18.06zm13.81 22.6l-.36 10.42c-.06 1.74-.55 3.05-1.46 3.96-.91.9-2.02 1.33-3.31 1.29-1.09-.04-2.01-.4-2.76-1.09-.51-.46-.89-1.12-1.17-1.98-.36 1.28-.94 2.21-1.74 2.8-.8.58-1.78.86-2.95.82-.96-.03-1.81-.28-2.55-.73-.75-.46-1.33-1.08-1.75-1.84-.26-.48-.44-1.19-.53-2.14-.12-1.26-.18-2.09-.17-2.5l.33-9.61 18.42.6zm-7.42 5.37l-.08 2.43c-.03.87.1 1.48.4 1.83.3.35.73.54 1.31.56.54.02.96-.14 1.27-.47.32-.33.49-.92.52-1.76l.09-2.46-3.51-.13zm-7.22-.24l-.1 2.84c-.03.96.12 1.64.45 2.05.33.41.79.62 1.38.64.54.02.99-.16 1.33-.54.34-.38.53-1.06.57-2.03l.1-2.83-3.73-.13zM172.79 132.82c2.26 0 4.08 1.61 4.08 3.59 0 1.98-1.83 3.59-4.08 3.59-2.26 0-4.08-1.61-4.08-3.59-.01-1.98 1.82-3.59 4.08-3.59zM28.21 132.55c2.26 0 4.08 1.83 4.08 4.08 0 2.26-1.83 4.08-4.08 4.08-2.26 0-4.08-1.83-4.08-4.08-.01-2.25 1.82-4.08 4.08-4.08z"/><path d="M100 31.57c37.8 0 68.45 30.64 68.45 68.45 0 37.8-30.64 68.45-68.45 68.45-37.8 0-68.45-30.64-68.45-68.45S62.2 31.57 100 31.57h0zm0 1.09c-37.2 0-67.36 30.16-67.36 67.36S62.8 167.38 100 167.38s67.36-30.16 67.36-67.36c0-37.21-30.16-67.36-67.36-67.36z" fill-rule="evenodd" clip-rule="evenodd" fill="#cd4fbd" stroke="#cd4fbd" stroke-width=".216" stroke-miterlimit="22.9256"/><path class="st1" d="M100 2c54.12 0 98 43.88 98 98s-43.88 98-98 98-98-43.88-98-98S45.88 2 100 2zm0 1.62C46.77 3.62 3.62 46.77 3.62 100s43.15 96.38 96.38 96.38 96.38-43.15 96.38-96.38S153.23 3.62 100 3.62z"/><path class="st0" d="M49.91 174.59l-11.23-8.82c1-1.01 2.21-1.74 3.63-2.21s3.55-.66 6.39-.58c1.74.05 2.93-.02 3.57-.2.64-.18 1.11-.46 1.41-.84.32-.41.45-.88.37-1.41-.08-.53-.34-.98-.81-1.34-.48-.37-.99-.53-1.53-.47-.54.07-1.16.44-1.87 1.12l-3.51-3.24c.98-.94 1.89-1.55 2.75-1.84.86-.29 1.76-.3 2.72-.06.96.24 2.07.86 3.34 1.85 1.32 1.03 2.22 1.99 2.72 2.86.5.87.71 1.79.64 2.73-.07.95-.41 1.82-1.01 2.59-.64.82-1.5 1.41-2.57 1.79-1.07.37-2.59.5-4.56.4-1.16-.07-1.95-.1-2.37-.09-.42.01-.93.05-1.54.11l5.85 4.59-2.39 3.06zm14.1 4.11l-1.47 2.85 3.68 1.9 1.47-2.85 1.91.99 1.69-3.27-1.91-.99 4.83-9.35-3.68-1.9-12.42 5.18-1.79 3.48 7.69 3.96zm1.69-3.28l-4.06-2.1 6.54-2.71-2.48 4.81zm31.91 14.71l-5.24-.68.82-6.31c-1.72.68-3.3.92-4.75.74-1.73-.23-3.09-.92-4.07-2.09-.99-1.17-1.36-2.65-1.13-4.43l.82-6.25 5.24.68-.68 5.22c-.11.83.01 1.49.34 1.99s.87.8 1.62.89c1.38.18 2.43-.1 3.15-.84l.86-6.57 5.24.68-2.22 16.97zm17.56-4.49l-5.95.77-.49 2.91-5.36.7 4.18-17.82 5.74-.75 8.58 16.15-5.5.72-1.2-2.68zm-1.59-3.54l-2.65-5.86-1.07 6.35 3.72-.49zm21.57-7.47l4.81-.64c.25 1.31.25 2.51 0 3.58-.25 1.07-.74 2.01-1.46 2.83-.72.81-1.78 1.54-3.18 2.17-1.7.77-3.2 1.15-4.5 1.14-1.3-.01-2.62-.46-3.96-1.34-1.34-.89-2.45-2.3-3.33-4.23-1.17-2.58-1.38-4.87-.63-6.88.75-2.01 2.38-3.58 4.9-4.72 1.97-.89 3.69-1.19 5.18-.91 1.48.29 2.87 1.13 4.16 2.53l-3.83 2.86c-.36-.4-.67-.68-.94-.82-.44-.24-.9-.38-1.37-.4-.48-.02-.96.08-1.45.29-1.1.5-1.74 1.31-1.92 2.45-.15.85.1 1.97.72 3.37.78 1.73 1.58 2.79 2.39 3.2.82.4 1.7.39 2.65-.04.92-.42 1.5-.99 1.74-1.72.25-.73.25-1.64.02-2.72zm19.39-7.54l-4.73 3.69 1.06 2.76-4.26 3.32-5.45-17.47 4.57-3.56 15.59 9.56-4.37 3.41-2.41-1.71zm-3.16-2.24l-5.26-3.7 2.3 6.01 2.96-2.31z"/></svg>
